<svg width="30" height="30" viewBox="0 0 30 30" fill="none" xmlns="http://www.w3.org/2000/svg">
<path d="M14.9541 0C6.69536 0 0 6.69518 0 14.9539C0 23.213 6.69536 29.9077 14.9541 29.9077C23.2137 29.9077 29.9084 23.213 29.9084 14.9539C29.9084 6.69571 23.2137 0.000714282 14.9539 0.000714282L14.9541 0ZM21.812 21.5679C21.5441 22.0071 20.9691 22.1464 20.5298 21.8768C17.0187 19.7321 12.5987 19.2464 7.39339 20.4357C6.89179 20.55 6.39179 20.2357 6.2775 19.7339C6.16268 19.2321 6.47571 18.7321 6.97857 18.6179C12.675 17.3159 17.5612 17.8768 21.503 20.2857C21.9423 20.5554 22.0816 21.1286 21.812 21.5679ZM23.6423 17.4955C23.3048 18.0446 22.587 18.2179 22.0387 17.8804C18.0191 15.4091 11.8918 14.6936 7.13732 16.1368C6.52071 16.323 5.86946 15.9755 5.68232 15.36C5.49661 14.7434 5.84429 14.0934 6.45982 13.9059C11.8907 12.258 18.6423 13.0563 23.2584 15.8929C23.8066 16.2304 23.9798 16.948 23.6423 17.4955ZM23.7995 13.2555C18.9798 10.3929 11.028 10.1296 6.42643 11.5262C5.6875 11.7504 4.90607 11.3332 4.68214 10.5943C4.45821 9.855 4.875 9.07411 5.61446 8.84946C10.8968 7.24589 19.678 7.55571 25.227 10.8498C25.893 11.2443 26.1109 12.1027 25.7162 12.7664C25.3234 13.4311 24.4627 13.6502 23.8002 13.2555H23.7995Z" fill="#C6C6C6"/>
</svg>
